<?xml version="1.0" standalone="no"?>
 <!DOCTYPE svg PUBLIC "-//W3C//DTD SVG 1.1//EN" 
 "http://www.w3.org/Graphics/SVG/1.1/DTD/svg11.dtd"> 
<svg xmlns="http://www.w3.org/2000/svg" version="1.1" 
    width="29.7002cm" height="21.0007cm" viewBox="0 0 116930 82680">
<title>SVG Picture created as esp8266-F_Cu.svg date 2020/02/23 12:43:42 </title>
  <desc>Picture generated by PCBNEW </desc>
<g style="fill:#000000; fill-opacity:1;stroke:#000000; stroke-opacity:1;
stroke-linecap:round; stroke-linejoin:round;"
 transform="translate(0 0) scale(1 1)">
</g>
<g style="fill:#000000; fill-opacity:0.0; 
stroke:#000000; stroke-width:-0.000393701; stroke-opacity:1; 
stroke-linecap:round; stroke-linejoin:round;">
</g>
<g style="fill:#000000; fill-opacity:0.0; 
stroke:#000000; stroke-width:78.7402; stroke-opacity:1; 
stroke-linecap:round; stroke-linejoin:round;">
<text x="54780" y="29786.2"
textLength="886.67" font-size="629.921" lengthAdjust="spacingAndGlyphs"
text-anchor="middle" opacity="0">TX</text>
<g class="stroked-text"><desc>TX</desc>
<path d="M55139 29291
L54869 29291
" />
<path d="M55004 29763
L55004 29291
" />
<path d="M54757 29291
L54442 29763
" />
<path d="M54442 29291
L54757 29763
" />
</g><text x="54530" y="30786.2"
textLength="1272.22" font-size="629.921" lengthAdjust="spacingAndGlyphs"
text-anchor="middle" opacity="0">IO5</text>
<g class="stroked-text"><desc>IO5</desc>
<path d="M55002 30763
L55002 30291
" />
<path d="M54687 30291
L54597 30291
L54552 30313
L54507 30358
L54485 30448
L54485 30606
L54507 30696
L54552 30741
L54597 30763
L54687 30763
L54732 30741
L54777 30696
L54799 30606
L54799 30448
L54777 30358
L54732 30313
L54687 30291
" />
<path d="M54057 30291
L54282 30291
L54305 30516
L54282 30493
L54237 30471
L54125 30471
L54080 30493
L54057 30516
L54035 30561
L54035 30673
L54057 30718
L54080 30741
L54125 30763
L54237 30763
L54282 30741
L54305 30718
" />
</g><text x="54530" y="31786.2"
textLength="1272.22" font-size="629.921" lengthAdjust="spacingAndGlyphs"
text-anchor="middle" opacity="0">IO4</text>
<g class="stroked-text"><desc>IO4</desc>
<path d="M55002 31763
L55002 31291
" />
<path d="M54687 31291
L54597 31291
L54552 31313
L54507 31358
L54485 31448
L54485 31606
L54507 31696
L54552 31741
L54597 31763
L54687 31763
L54732 31741
L54777 31696
L54799 31606
L54799 31448
L54777 31358
L54732 31313
L54687 31291
" />
<path d="M54080 31448
L54080 31763
" />
<path d="M54192 31268
L54305 31606
L54012 31606
" />
</g><text x="54530" y="32786.2"
textLength="1272.22" font-size="629.921" lengthAdjust="spacingAndGlyphs"
text-anchor="middle" opacity="0">IO0</text>
<g class="stroked-text"><desc>IO0</desc>
<path d="M55002 32763
L55002 32291
" />
<path d="M54687 32291
L54597 32291
L54552 32313
L54507 32358
L54485 32448
L54485 32606
L54507 32696
L54552 32741
L54597 32763
L54687 32763
L54732 32741
L54777 32696
L54799 32606
L54799 32448
L54777 32358
L54732 32313
L54687 32291
" />
<path d="M54192 32291
L54147 32291
L54102 32313
L54080 32336
L54057 32381
L54035 32471
L54035 32583
L54057 32673
L54080 32718
L54102 32741
L54147 32763
L54192 32763
L54237 32741
L54260 32718
L54282 32673
L54305 32583
L54305 32471
L54282 32381
L54260 32336
L54237 32313
L54192 32291
" />
</g><text x="54530" y="33786.2"
textLength="1272.22" font-size="629.921" lengthAdjust="spacingAndGlyphs"
text-anchor="middle" opacity="0">IO2</text>
<g class="stroked-text"><desc>IO2</desc>
<path d="M55002 33763
L55002 33291
" />
<path d="M54687 33291
L54597 33291
L54552 33313
L54507 33358
L54485 33448
L54485 33606
L54507 33696
L54552 33741
L54597 33763
L54687 33763
L54732 33741
L54777 33696
L54799 33606
L54799 33448
L54777 33358
L54732 33313
L54687 33291
" />
<path d="M54305 33336
L54282 33313
L54237 33291
L54125 33291
L54080 33313
L54057 33336
L54035 33381
L54035 33426
L54057 33493
L54327 33763
L54035 33763
" />
</g><text x="54330" y="34786.2"
textLength="1722.16" font-size="629.921" lengthAdjust="spacingAndGlyphs"
text-anchor="middle" opacity="0">IO15</text>
<g class="stroked-text"><desc>IO15</desc>
<path d="M55027 34763
L55027 34291
" />
<path d="M54712 34291
L54622 34291
L54577 34313
L54532 34358
L54509 34448
L54509 34606
L54532 34696
L54577 34741
L54622 34763
L54712 34763
L54757 34741
L54802 34696
L54824 34606
L54824 34448
L54802 34358
L54757 34313
L54712 34291
" />
<path d="M54060 34763
L54330 34763
" />
<path d="M54195 34763
L54195 34291
L54240 34358
L54285 34403
L54330 34426
" />
<path d="M53632 34291
L53857 34291
L53880 34516
L53857 34493
L53812 34471
L53700 34471
L53655 34493
L53632 34516
L53610 34561
L53610 34673
L53632 34718
L53655 34741
L53700 34763
L53812 34763
L53857 34741
L53880 34718
" />
</g><text x="65530" y="31786.2"
textLength="1722.16" font-size="629.921" lengthAdjust="spacingAndGlyphs"
text-anchor="middle" opacity="0">IO13</text>
<g class="stroked-text"><desc>IO13</desc>
<path d="M66227 31763
L66227 31291
" />
<path d="M65912 31291
L65822 31291
L65777 31313
L65732 31358
L65709 31448
L65709 31606
L65732 31696
L65777 31741
L65822 31763
L65912 31763
L65957 31741
L66002 31696
L66024 31606
L66024 31448
L66002 31358
L65957 31313
L65912 31291
" />
<path d="M65260 31763
L65530 31763
" />
<path d="M65395 31763
L65395 31291
L65440 31358
L65485 31403
L65530 31426
" />
<path d="M65102 31291
L64810 31291
L64967 31471
L64900 31471
L64855 31493
L64832 31516
L64810 31561
L64810 31673
L64832 31718
L64855 31741
L64900 31763
L65035 31763
L65080 31741
L65102 31718
" />
</g><text x="65530" y="30786.2"
textLength="1722.16" font-size="629.921" lengthAdjust="spacingAndGlyphs"
text-anchor="middle" opacity="0">IO12</text>
<g class="stroked-text"><desc>IO12</desc>
<path d="M66227 30763
L66227 30291
" />
<path d="M65912 30291
L65822 30291
L65777 30313
L65732 30358
L65709 30448
L65709 30606
L65732 30696
L65777 30741
L65822 30763
L65912 30763
L65957 30741
L66002 30696
L66024 30606
L66024 30448
L66002 30358
L65957 30313
L65912 30291
" />
<path d="M65260 30763
L65530 30763
" />
<path d="M65395 30763
L65395 30291
L65440 30358
L65485 30403
L65530 30426
" />
<path d="M65080 30336
L65057 30313
L65012 30291
L64900 30291
L64855 30313
L64832 30336
L64810 30381
L64810 30426
L64832 30493
L65102 30763
L64810 30763
" />
</g><text x="65530" y="29786.2"
textLength="1722.16" font-size="629.921" lengthAdjust="spacingAndGlyphs"
text-anchor="middle" opacity="0">IO14</text>
<g class="stroked-text"><desc>IO14</desc>
<path d="M66227 29763
L66227 29291
" />
<path d="M65912 29291
L65822 29291
L65777 29313
L65732 29358
L65709 29448
L65709 29606
L65732 29696
L65777 29741
L65822 29763
L65912 29763
L65957 29741
L66002 29696
L66024 29606
L66024 29448
L66002 29358
L65957 29313
L65912 29291
" />
<path d="M65260 29763
L65530 29763
" />
<path d="M65395 29763
L65395 29291
L65440 29358
L65485 29403
L65530 29426
" />
<path d="M64855 29448
L64855 29763
" />
<path d="M64967 29268
L65080 29606
L64787 29606
" />
</g><text x="65580" y="27786.2"
textLength="1452.19" font-size="629.921" lengthAdjust="spacingAndGlyphs"
text-anchor="middle" opacity="0">ADC</text>
<g class="stroked-text"><desc>ADC</desc>
<path d="M66164 27628
L65939 27628
" />
<path d="M66209 27763
L66052 27291
L65894 27763
" />
<path d="M65737 27763
L65737 27291
L65624 27291
L65557 27313
L65512 27358
L65490 27403
L65467 27493
L65467 27561
L65490 27651
L65512 27696
L65557 27741
L65624 27763
L65737 27763
" />
<path d="M64995 27718
L65017 27741
L65085 27763
L65130 27763
L65197 27741
L65242 27696
L65265 27651
L65287 27561
L65287 27493
L65265 27403
L65242 27358
L65197 27313
L65130 27291
L65085 27291
L65017 27313
L64995 27336
" />
</g><text x="65530" y="28786.2"
textLength="1722.16" font-size="629.921" lengthAdjust="spacingAndGlyphs"
text-anchor="middle" opacity="0">IO16</text>
<g class="stroked-text"><desc>IO16</desc>
<path d="M66227 28763
L66227 28291
" />
<path d="M65912 28291
L65822 28291
L65777 28313
L65732 28358
L65709 28448
L65709 28606
L65732 28696
L65777 28741
L65822 28763
L65912 28763
L65957 28741
L66002 28696
L66024 28606
L66024 28448
L66002 28358
L65957 28313
L65912 28291
" />
<path d="M65260 28763
L65530 28763
" />
<path d="M65395 28763
L65395 28291
L65440 28358
L65485 28403
L65530 28426
" />
<path d="M64855 28291
L64945 28291
L64990 28313
L65012 28336
L65057 28403
L65080 28493
L65080 28673
L65057 28718
L65035 28741
L64990 28763
L64900 28763
L64855 28741
L64832 28718
L64810 28673
L64810 28561
L64832 28516
L64855 28493
L64900 28471
L64990 28471
L65035 28493
L65057 28516
L65080 28561
" />
</g><text x="67830" y="36536.2"
textLength="1542.18" font-size="629.921" lengthAdjust="spacingAndGlyphs"
text-anchor="middle" opacity="0">GND</text>
<g class="stroked-text"><desc>GND</desc>
<path d="M68189 36063
L68234 36041
L68302 36041
L68369 36063
L68414 36108
L68437 36153
L68459 36243
L68459 36311
L68437 36401
L68414 36446
L68369 36491
L68302 36513
L68257 36513
L68189 36491
L68167 36468
L68167 36311
L68257 36311
" />
<path d="M67964 36513
L67964 36041
L67695 36513
L67695 36041
" />
<path d="M67470 36513
L67470 36041
L67357 36041
L67290 36063
L67245 36108
L67222 36153
L67200 36243
L67200 36311
L67222 36401
L67245 36446
L67290 36491
L67357 36513
L67470 36513
" />
</g><text x="55030" y="27736.2"
textLength="1992.13" font-size="629.921" lengthAdjust="spacingAndGlyphs"
text-anchor="middle" opacity="0">+3V3</text>
<g class="stroked-text"><desc>+3V3</desc>
<path d="M55862 27533
L55502 27533
" />
<path d="M55682 27713
L55682 27353
" />
<path d="M55322 27241
L55030 27241
L55187 27421
L55119 27421
L55074 27443
L55052 27466
L55030 27511
L55030 27623
L55052 27668
L55074 27691
L55119 27713
L55254 27713
L55299 27691
L55322 27668
" />
<path d="M54895 27241
L54737 27713
L54580 27241
" />
<path d="M54467 27241
L54175 27241
L54332 27421
L54265 27421
L54220 27443
L54197 27466
L54175 27511
L54175 27623
L54197 27668
L54220 27691
L54265 27713
L54400 27713
L54445 27691
L54467 27668
" />
</g></g>
<g style="fill:#000000; fill-opacity:0.0; 
stroke:#000000; stroke-width:19.685; stroke-opacity:1; 
stroke-linecap:round; stroke-linejoin:round;">
<path d="M68930 47370
L50930 47370
" />
<path d="M50930 25000
L50930 47370
" />
<path d="M68930 25000
L50930 25000
" />
<path d="M68930 25000
L68930 47370
" />
<g >
</g>
<g style="fill:#000000; fill-opacity:0.0; 
stroke:#000000; stroke-width:0; stroke-opacity:1; 
stroke-linecap:round; stroke-linejoin:round;">
</g>
<g style="fill:#000000; fill-opacity:1.0; 
stroke:#000000; stroke-width:0; stroke-opacity:1; 
stroke-linecap:round; stroke-linejoin:round;">
<path style="fill:#000000; fill-opacity:1.0; 
stroke:#000000; stroke-width:0; stroke-opacity:1; 
stroke-linecap:round; stroke-linejoin:round;fill-rule:evenodd;"
d="M 61842.3,38085.8
61810.4,38107.2
61789.1,38139.1
61781.6,38176.8
61781.6,39023.2
61789.1,39060.9
61810.4,39092.8
61842.3,39114.2
61880,39121.7
62175.3,39121.7
62212.9,39114.2
62244.9,39092.8
62266.2,39060.9
62273.7,39023.2
62273.7,38176.8
62266.2,38139.1
62244.9,38107.2
62212.9,38085.8
62175.3,38078.3
61880,38078.3
Z" /> 
<path style="fill:#000000; fill-opacity:1.0; 
stroke:#000000; stroke-width:0; stroke-opacity:1; 
stroke-linecap:round; stroke-linejoin:round;fill-rule:evenodd;"
d="M 62944.7,38085.8
62912.8,38107.2
62891.4,38139.1
62883.9,38176.8
62883.9,39023.2
62891.4,39060.9
62912.8,39092.8
62944.7,39114.2
62982.4,39121.7
63277.6,39121.7
63315.3,39114.2
63347.2,39092.8
63368.6,39060.9
63376.1,39023.2
63376.1,38176.8
63368.6,38139.1
63347.2,38107.2
63315.3,38085.8
63277.6,38078.3
62982.4,38078.3
Z" /> 
</g>
<g >
</g>
<g style="fill:#000000; fill-opacity:1.0; 
stroke:#000000; stroke-width:0; stroke-opacity:1; 
stroke-linecap:round; stroke-linejoin:round;">
<path style="fill:#000000; fill-opacity:1.0; 
stroke:#000000; stroke-width:0; stroke-opacity:1; 
stroke-linecap:round; stroke-linejoin:round;fill-rule:evenodd;"
d="M 62944.7,39485.8
62912.8,39507.2
62891.4,39539.1
62883.9,39576.8
62883.9,40423.2
62891.4,40460.9
62912.8,40492.8
62944.7,40514.2
62982.4,40521.7
63277.6,40521.7
63315.3,40514.2
63347.2,40492.8
63368.6,40460.9
63376.1,40423.2
63376.1,39576.8
63368.6,39539.1
63347.2,39507.2
63315.3,39485.8
63277.6,39478.3
62982.4,39478.3
Z" /> 
<path style="fill:#000000; fill-opacity:1.0; 
stroke:#000000; stroke-width:0; stroke-opacity:1; 
stroke-linecap:round; stroke-linejoin:round;fill-rule:evenodd;"
d="M 61842.3,39485.8
61810.4,39507.2
61789.1,39539.1
61781.6,39576.8
61781.6,40423.2
61789.1,40460.9
61810.4,40492.8
61842.3,40514.2
61880,40521.7
62175.3,40521.7
62212.9,40514.2
62244.9,40492.8
62266.2,40460.9
62273.7,40423.2
62273.7,39576.8
62266.2,39539.1
62244.9,39507.2
62212.9,39485.8
62175.3,39478.3
61880,39478.3
Z" /> 
</g>
<g >
</g>
<g style="fill:#000000; fill-opacity:1.0; 
stroke:#000000; stroke-width:0; stroke-opacity:1; 
stroke-linecap:round; stroke-linejoin:round;">
<path style="fill:#000000; fill-opacity:1.0; 
stroke:#000000; stroke-width:0; stroke-opacity:1; 
stroke-linecap:round; stroke-linejoin:round;fill-rule:evenodd;"
d="M 57160.5,36081.7
57129.4,36102.5
57108.6,36133.7
57101.3,36170.4
57101.3,36529.6
57108.6,36566.3
57129.4,36597.5
57160.5,36618.3
57197.2,36625.6
57389.2,36625.6
57425.9,36618.3
57457,36597.5
57477.8,36566.3
57485.1,36529.6
57485.1,36170.4
57477.8,36133.7
57457,36102.5
57425.9,36081.7
57389.2,36074.4
57197.2,36074.4
Z" /> 
<path style="fill:#000000; fill-opacity:1.0; 
stroke:#000000; stroke-width:0; stroke-opacity:1; 
stroke-linecap:round; stroke-linejoin:round;fill-rule:evenodd;"
d="M 56422.3,36081.7
56391.2,36102.5
56370.4,36133.7
56363.1,36170.4
56363.1,36529.6
56370.4,36566.3
56391.2,36597.5
56422.3,36618.3
56459,36625.6
56651,36625.6
56687.7,36618.3
56718.8,36597.5
56739.6,36566.3
56746.9,36529.6
56746.9,36170.4
56739.6,36133.7
56718.8,36102.5
56687.7,36081.7
56651,36074.4
56459,36074.4
Z" /> 
</g>
<g >
</g>
<g style="fill:#000000; fill-opacity:1.0; 
stroke:#000000; stroke-width:0; stroke-opacity:1; 
stroke-linecap:round; stroke-linejoin:round;">
<path style="fill:#000000; fill-opacity:1.0; 
stroke:#000000; stroke-width:0; stroke-opacity:1; 
stroke-linecap:round; stroke-linejoin:round;fill-rule:evenodd;"
d="M 55313.7,35553.6
55282.5,35574.4
55261.7,35605.5
55254.4,35642.2
55254.4,35834.2
55261.7,35870.9
55282.5,35902
55313.7,35922.8
55350.4,35930.1
55709.6,35930.1
55746.3,35922.8
55777.5,35902
55798.3,35870.9
55805.6,35834.2
55805.6,35642.2
55798.3,35605.5
55777.5,35574.4
55746.3,35553.6
55709.6,35546.3
55350.4,35546.3
Z" /> 
<path style="fill:#000000; fill-opacity:1.0; 
stroke:#000000; stroke-width:0; stroke-opacity:1; 
stroke-linecap:round; stroke-linejoin:round;fill-rule:evenodd;"
d="M 55313.7,34815.4
55282.5,34836.2
55261.7,34867.3
55254.4,34904
55254.4,35096
55261.7,35132.7
55282.5,35163.8
55313.7,35184.6
55350.4,35191.9
55709.6,35191.9
55746.3,35184.6
55777.5,35163.8
55798.3,35132.7
55805.6,35096
55805.6,34904
55798.3,34867.3
55777.5,34836.2
55746.3,34815.4
55709.6,34808.1
55350.4,34808.1
Z" /> 
</g>
<g >
</g>
<g style="fill:#000000; fill-opacity:1.0; 
stroke:#000000; stroke-width:0; stroke-opacity:1; 
stroke-linecap:round; stroke-linejoin:round;">
<path style="fill:#000000; fill-opacity:1.0; 
stroke:#000000; stroke-width:0; stroke-opacity:1; 
stroke-linecap:round; stroke-linejoin:round;fill-rule:evenodd;"
d="M 59070.6,41459.4
60389.4,41459.4
60389.4,40140.6
59070.6,40140.6
Z" /> 
<path style="fill:#000000; fill-opacity:1.0; 
stroke:#000000; stroke-width:0; stroke-opacity:1; 
stroke-linecap:round; stroke-linejoin:round;fill-rule:evenodd;"
d="M 60552.3,41343.2
60544.3,41348.5
60539,41356.5
60537.1,41365.9
60537.1,41415.2
60539,41424.6
60544.3,41432.6
60552.3,41437.9
60561.7,41439.8
60827.4,41439.8
60836.9,41437.9
60844.8,41432.6
60850.2,41424.6
60852,41415.2
60852,41365.9
60850.2,41356.5
60844.8,41348.5
60836.9,41343.2
60827.4,41341.3
60561.7,41341.3
Z" /> 
<path style="fill:#000000; fill-opacity:1.0; 
stroke:#000000; stroke-width:0; stroke-opacity:1; 
stroke-linecap:round; stroke-linejoin:round;fill-rule:evenodd;"
d="M 60552.3,41146.4
60544.3,41151.7
60539,41159.7
60537.1,41169.1
60537.1,41218.3
60539,41227.7
60544.3,41235.7
60552.3,41241
60561.7,41242.9
60827.4,41242.9
60836.9,41241
60844.8,41235.7
60850.2,41227.7
60852,41218.3
60852,41169.1
60850.2,41159.7
60844.8,41151.7
60836.9,41146.4
60827.4,41144.5
60561.7,41144.5
Z" /> 
<path style="fill:#000000; fill-opacity:1.0; 
stroke:#000000; stroke-width:0; stroke-opacity:1; 
stroke-linecap:round; stroke-linejoin:round;fill-rule:evenodd;"
d="M 60552.3,40949.5
60544.3,40954.8
60539,40962.8
60537.1,40972.2
60537.1,41021.5
60539,41030.9
60544.3,41038.9
60552.3,41044.2
60561.7,41046.1
60827.4,41046.1
60836.9,41044.2
60844.8,41038.9
60850.2,41030.9
60852,41021.5
60852,40972.2
60850.2,40962.8
60844.8,40954.8
60836.9,40949.5
60827.4,40947.6
60561.7,40947.6
Z" /> 
<path style="fill:#000000; fill-opacity:1.0; 
stroke:#000000; stroke-width:0; stroke-opacity:1; 
stroke-linecap:round; stroke-linejoin:round;fill-rule:evenodd;"
d="M 60552.3,40752.7
60544.3,40758
60539,40766
60537.1,40775.4
60537.1,40824.6
60539,40834
60544.3,40842
60552.3,40847.3
60561.7,40849.2
60827.4,40849.2
60836.9,40847.3
60844.8,40842
60850.2,40834
60852,40824.6
60852,40775.4
60850.2,40766
60844.8,40758
60836.9,40752.7
60827.4,40750.8
60561.7,40750.8
Z" /> 
<path style="fill:#000000; fill-opacity:1.0; 
stroke:#000000; stroke-width:0; stroke-opacity:1; 
stroke-linecap:round; stroke-linejoin:round;fill-rule:evenodd;"
d="M 60552.3,40555.8
60544.3,40561.1
60539,40569.1
60537.1,40578.5
60537.1,40627.8
60539,40637.2
60544.3,40645.2
60552.3,40650.5
60561.7,40652.4
60827.4,40652.4
60836.9,40650.5
60844.8,40645.2
60850.2,40637.2
60852,40627.8
60852,40578.5
60850.2,40569.1
60844.8,40561.1
60836.9,40555.8
60827.4,40553.9
60561.7,40553.9
Z" /> 
<path style="fill:#000000; fill-opacity:1.0; 
stroke:#000000; stroke-width:0; stroke-opacity:1; 
stroke-linecap:round; stroke-linejoin:round;fill-rule:evenodd;"
d="M 60552.3,40359
60544.3,40364.3
60539,40372.3
60537.1,40381.7
60537.1,40430.9
60539,40440.3
60544.3,40448.3
60552.3,40453.6
60561.7,40455.5
60827.4,40455.5
60836.9,40453.6
60844.8,40448.3
60850.2,40440.3
60852,40430.9
60852,40381.7
60850.2,40372.3
60844.8,40364.3
60836.9,40359
60827.4,40357.1
60561.7,40357.1
Z" /> 
<path style="fill:#000000; fill-opacity:1.0; 
stroke:#000000; stroke-width:0; stroke-opacity:1; 
stroke-linecap:round; stroke-linejoin:round;fill-rule:evenodd;"
d="M 60552.3,40162.1
60544.3,40167.4
60539,40175.4
60537.1,40184.8
60537.1,40234.1
60539,40243.5
60544.3,40251.5
60552.3,40256.8
60561.7,40258.7
60827.4,40258.7
60836.9,40256.8
60844.8,40251.5
60850.2,40243.5
60852,40234.1
60852,40184.8
60850.2,40175.4
60844.8,40167.4
60836.9,40162.1
60827.4,40160.2
60561.7,40160.2
Z" /> 
<path style="fill:#000000; fill-opacity:1.0; 
stroke:#000000; stroke-width:0; stroke-opacity:1; 
stroke-linecap:round; stroke-linejoin:round;fill-rule:evenodd;"
d="M 60286.5,39679.8
60278.5,39685.2
60273.2,39693.1
60271.3,39702.6
60271.3,39968.3
60273.2,39977.7
60278.5,39985.7
60286.5,39991
60295.9,39992.9
60345.2,39992.9
60354.6,39991
60362.6,39985.7
60367.9,39977.7
60369.8,39968.3
60369.8,39702.6
60367.9,39693.1
60362.6,39685.2
60354.6,39679.8
60345.2,39678
60295.9,39678
Z" /> 
<path style="fill:#000000; fill-opacity:1.0; 
stroke:#000000; stroke-width:0; stroke-opacity:1; 
stroke-linecap:round; stroke-linejoin:round;fill-rule:evenodd;"
d="M 60089.7,39679.8
60081.7,39685.2
60076.4,39693.1
60074.5,39702.6
60074.5,39968.3
60076.4,39977.7
60081.7,39985.7
60089.7,39991
60099.1,39992.9
60148.3,39992.9
60157.7,39991
60165.7,39985.7
60171,39977.7
60172.9,39968.3
60172.9,39702.6
60171,39693.1
60165.7,39685.2
60157.7,39679.8
60148.3,39678
60099.1,39678
Z" /> 
<path style="fill:#000000; fill-opacity:1.0; 
stroke:#000000; stroke-width:0; stroke-opacity:1; 
stroke-linecap:round; stroke-linejoin:round;fill-rule:evenodd;"
d="M 59892.8,39679.8
59884.8,39685.2
59879.5,39693.1
59877.6,39702.6
59877.6,39968.3
59879.5,39977.7
59884.8,39985.7
59892.8,39991
59902.2,39992.9
59951.5,39992.9
59960.9,39991
59968.9,39985.7
59974.2,39977.7
59976.1,39968.3
59976.1,39702.6
59974.2,39693.1
59968.9,39685.2
59960.9,39679.8
59951.5,39678
59902.2,39678
Z" /> 
<path style="fill:#000000; fill-opacity:1.0; 
stroke:#000000; stroke-width:0; stroke-opacity:1; 
stroke-linecap:round; stroke-linejoin:round;fill-rule:evenodd;"
d="M 59696,39679.8
59688,39685.2
59682.7,39693.1
59680.8,39702.6
59680.8,39968.3
59682.7,39977.7
59688,39985.7
59696,39991
59705.4,39992.9
59754.6,39992.9
59764,39991
59772,39985.7
59777.3,39977.7
59779.2,39968.3
59779.2,39702.6
59777.3,39693.1
59772,39685.2
59764,39679.8
59754.6,39678
59705.4,39678
Z" /> 
<path style="fill:#000000; fill-opacity:1.0; 
stroke:#000000; stroke-width:0; stroke-opacity:1; 
stroke-linecap:round; stroke-linejoin:round;fill-rule:evenodd;"
d="M 59499.1,39679.8
59491.1,39685.2
59485.8,39693.1
59483.9,39702.6
59483.9,39968.3
59485.8,39977.7
59491.1,39985.7
59499.1,39991
59508.5,39992.9
59557.8,39992.9
59567.2,39991
59575.2,39985.7
59580.5,39977.7
59582.4,39968.3
59582.4,39702.6
59580.5,39693.1
59575.2,39685.2
59567.2,39679.8
59557.8,39678
59508.5,39678
Z" /> 
<path style="fill:#000000; fill-opacity:1.0; 
stroke:#000000; stroke-width:0; stroke-opacity:1; 
stroke-linecap:round; stroke-linejoin:round;fill-rule:evenodd;"
d="M 59302.3,39679.8
59294.3,39685.2
59289,39693.1
59287.1,39702.6
59287.1,39968.3
59289,39977.7
59294.3,39985.7
59302.3,39991
59311.7,39992.9
59360.9,39992.9
59370.3,39991
59378.3,39985.7
59383.6,39977.7
59385.5,39968.3
59385.5,39702.6
59383.6,39693.1
59378.3,39685.2
59370.3,39679.8
59360.9,39678
59311.7,39678
Z" /> 
<path style="fill:#000000; fill-opacity:1.0; 
stroke:#000000; stroke-width:0; stroke-opacity:1; 
stroke-linecap:round; stroke-linejoin:round;fill-rule:evenodd;"
d="M 59105.4,39679.8
59097.4,39685.2
59092.1,39693.1
59090.2,39702.6
59090.2,39968.3
59092.1,39977.7
59097.4,39985.7
59105.4,39991
59114.8,39992.9
59164.1,39992.9
59173.5,39991
59181.5,39985.7
59186.8,39977.7
59188.7,39968.3
59188.7,39702.6
59186.8,39693.1
59181.5,39685.2
59173.5,39679.8
59164.1,39678
59114.8,39678
Z" /> 
<path style="fill:#000000; fill-opacity:1.0; 
stroke:#000000; stroke-width:0; stroke-opacity:1; 
stroke-linecap:round; stroke-linejoin:round;fill-rule:evenodd;"
d="M 58623.1,40162.1
58615.2,40167.4
58609.8,40175.4
58608,40184.8
58608,40234.1
58609.8,40243.5
58615.2,40251.5
58623.1,40256.8
58632.6,40258.7
58898.3,40258.7
58907.7,40256.8
58915.7,40251.5
58921,40243.5
58922.9,40234.1
58922.9,40184.8
58921,40175.4
58915.7,40167.4
58907.7,40162.1
58898.3,40160.2
58632.6,40160.2
Z" /> 
<path style="fill:#000000; fill-opacity:1.0; 
stroke:#000000; stroke-width:0; stroke-opacity:1; 
stroke-linecap:round; stroke-linejoin:round;fill-rule:evenodd;"
d="M 58623.1,40359
58615.2,40364.3
58609.8,40372.3
58608,40381.7
58608,40430.9
58609.8,40440.3
58615.2,40448.3
58623.1,40453.6
58632.6,40455.5
58898.3,40455.5
58907.7,40453.6
58915.7,40448.3
58921,40440.3
58922.9,40430.9
58922.9,40381.7
58921,40372.3
58915.7,40364.3
58907.7,40359
58898.3,40357.1
58632.6,40357.1
Z" /> 
<path style="fill:#000000; fill-opacity:1.0; 
stroke:#000000; stroke-width:0; stroke-opacity:1; 
stroke-linecap:round; stroke-linejoin:round;fill-rule:evenodd;"
d="M 58623.1,40555.8
58615.2,40561.1
58609.8,40569.1
58608,40578.5
58608,40627.8
58609.8,40637.2
58615.2,40645.2
58623.1,40650.5
58632.6,40652.4
58898.3,40652.4
58907.7,40650.5
58915.7,40645.2
58921,40637.2
58922.9,40627.8
58922.9,40578.5
58921,40569.1
58915.7,40561.1
58907.7,40555.8
58898.3,40553.9
58632.6,40553.9
Z" /> 
<path style="fill:#000000; fill-opacity:1.0; 
stroke:#000000; stroke-width:0; stroke-opacity:1; 
stroke-linecap:round; stroke-linejoin:round;fill-rule:evenodd;"
d="M 58623.1,40752.7
58615.2,40758
58609.8,40766
58608,40775.4
58608,40824.6
58609.8,40834
58615.2,40842
58623.1,40847.3
58632.6,40849.2
58898.3,40849.2
58907.7,40847.3
58915.7,40842
58921,40834
58922.9,40824.6
58922.9,40775.4
58921,40766
58915.7,40758
58907.7,40752.7
58898.3,40750.8
58632.6,40750.8
Z" /> 
<path style="fill:#000000; fill-opacity:1.0; 
stroke:#000000; stroke-width:0; stroke-opacity:1; 
stroke-linecap:round; stroke-linejoin:round;fill-rule:evenodd;"
d="M 58623.1,40949.5
58615.2,40954.8
58609.8,40962.8
58608,40972.2
58608,41021.5
58609.8,41030.9
58615.2,41038.9
58623.1,41044.2
58632.6,41046.1
58898.3,41046.1
58907.7,41044.2
58915.7,41038.9
58921,41030.9
58922.9,41021.5
58922.9,40972.2
58921,40962.8
58915.7,40954.8
58907.7,40949.5
58898.3,40947.6
58632.6,40947.6
Z" /> 
<path style="fill:#000000; fill-opacity:1.0; 
stroke:#000000; stroke-width:0; stroke-opacity:1; 
stroke-linecap:round; stroke-linejoin:round;fill-rule:evenodd;"
d="M 58623.1,41146.4
58615.2,41151.7
58609.8,41159.7
58608,41169.1
58608,41218.3
58609.8,41227.7
58615.2,41235.7
58623.1,41241
58632.6,41242.9
58898.3,41242.9
58907.7,41241
58915.7,41235.7
58921,41227.7
58922.9,41218.3
58922.9,41169.1
58921,41159.7
58915.7,41151.7
58907.7,41146.4
58898.3,41144.5
58632.6,41144.5
Z" /> 
<path style="fill:#000000; fill-opacity:1.0; 
stroke:#000000; stroke-width:0; stroke-opacity:1; 
stroke-linecap:round; stroke-linejoin:round;fill-rule:evenodd;"
d="M 58623.1,41343.2
58615.2,41348.5
58609.8,41356.5
58608,41365.9
58608,41415.2
58609.8,41424.6
58615.2,41432.6
58623.1,41437.9
58632.6,41439.8
58898.3,41439.8
58907.7,41437.9
58915.7,41432.6
58921,41424.6
58922.9,41415.2
58922.9,41365.9
58921,41356.5
58915.7,41348.5
58907.7,41343.2
58898.3,41341.3
58632.6,41341.3
Z" /> 
<path style="fill:#000000; fill-opacity:1.0; 
stroke:#000000; stroke-width:0; stroke-opacity:1; 
stroke-linecap:round; stroke-linejoin:round;fill-rule:evenodd;"
d="M 59105.4,41609
59097.4,41614.3
59092.1,41622.3
59090.2,41631.7
59090.2,41897.4
59092.1,41906.9
59097.4,41914.8
59105.4,41920.2
59114.8,41922
59164.1,41922
59173.5,41920.2
59181.5,41914.8
59186.8,41906.9
59188.7,41897.4
59188.7,41631.7
59186.8,41622.3
59181.5,41614.3
59173.5,41609
59164.1,41607.1
59114.8,41607.1
Z" /> 
<path style="fill:#000000; fill-opacity:1.0; 
stroke:#000000; stroke-width:0; stroke-opacity:1; 
stroke-linecap:round; stroke-linejoin:round;fill-rule:evenodd;"
d="M 59302.3,41609
59294.3,41614.3
59289,41622.3
59287.1,41631.7
59287.1,41897.4
59289,41906.9
59294.3,41914.8
59302.3,41920.2
59311.7,41922
59360.9,41922
59370.3,41920.2
59378.3,41914.8
59383.6,41906.9
59385.5,41897.4
59385.5,41631.7
59383.6,41622.3
59378.3,41614.3
59370.3,41609
59360.9,41607.1
59311.7,41607.1
Z" /> 
<path style="fill:#000000; fill-opacity:1.0; 
stroke:#000000; stroke-width:0; stroke-opacity:1; 
stroke-linecap:round; stroke-linejoin:round;fill-rule:evenodd;"
d="M 59499.1,41609
59491.1,41614.3
59485.8,41622.3
59483.9,41631.7
59483.9,41897.4
59485.8,41906.9
59491.1,41914.8
59499.1,41920.2
59508.5,41922
59557.8,41922
59567.2,41920.2
59575.2,41914.8
59580.5,41906.9
59582.4,41897.4
59582.4,41631.7
59580.5,41622.3
59575.2,41614.3
59567.2,41609
59557.8,41607.1
59508.5,41607.1
Z" /> 
<path style="fill:#000000; fill-opacity:1.0; 
stroke:#000000; stroke-width:0; stroke-opacity:1; 
stroke-linecap:round; stroke-linejoin:round;fill-rule:evenodd;"
d="M 59696,41609
59688,41614.3
59682.7,41622.3
59680.8,41631.7
59680.8,41897.4
59682.7,41906.9
59688,41914.8
59696,41920.2
59705.4,41922
59754.6,41922
59764,41920.2
59772,41914.8
59777.3,41906.9
59779.2,41897.4
59779.2,41631.7
59777.3,41622.3
59772,41614.3
59764,41609
59754.6,41607.1
59705.4,41607.1
Z" /> 
<path style="fill:#000000; fill-opacity:1.0; 
stroke:#000000; stroke-width:0; stroke-opacity:1; 
stroke-linecap:round; stroke-linejoin:round;fill-rule:evenodd;"
d="M 59892.8,41609
59884.8,41614.3
59879.5,41622.3
59877.6,41631.7
59877.6,41897.4
59879.5,41906.9
59884.8,41914.8
59892.8,41920.2
59902.2,41922
59951.5,41922
59960.9,41920.2
59968.9,41914.8
59974.2,41906.9
59976.1,41897.4
59976.1,41631.7
59974.2,41622.3
59968.9,41614.3
59960.9,41609
59951.5,41607.1
59902.2,41607.1
Z" /> 
<path style="fill:#000000; fill-opacity:1.0; 
stroke:#000000; stroke-width:0; stroke-opacity:1; 
stroke-linecap:round; stroke-linejoin:round;fill-rule:evenodd;"
d="M 60089.7,41609
60081.7,41614.3
60076.4,41622.3
60074.5,41631.7
60074.5,41897.4
60076.4,41906.9
60081.7,41914.8
60089.7,41920.2
60099.1,41922
60148.3,41922
60157.7,41920.2
60165.7,41914.8
60171,41906.9
60172.9,41897.4
60172.9,41631.7
60171,41622.3
60165.7,41614.3
60157.7,41609
60148.3,41607.1
60099.1,41607.1
Z" /> 
<path style="fill:#000000; fill-opacity:1.0; 
stroke:#000000; stroke-width:0; stroke-opacity:1; 
stroke-linecap:round; stroke-linejoin:round;fill-rule:evenodd;"
d="M 60286.5,41609
60278.5,41614.3
60273.2,41622.3
60271.3,41631.7
60271.3,41897.4
60273.2,41906.9
60278.5,41914.8
60286.5,41920.2
60295.9,41922
60345.2,41922
60354.6,41920.2
60362.6,41914.8
60367.9,41906.9
60369.8,41897.4
60369.8,41631.7
60367.9,41622.3
60362.6,41614.3
60354.6,41609
60345.2,41607.1
60295.9,41607.1
Z" /> 
</g>
<g >
</g>
<g style="fill:#000000; fill-opacity:1.0; 
stroke:#000000; stroke-width:0; stroke-opacity:1; 
stroke-linecap:round; stroke-linejoin:round;">
<path style="fill:#000000; fill-opacity:1.0; 
stroke:#000000; stroke-width:0; stroke-opacity:1; 
stroke-linecap:round; stroke-linejoin:round;fill-rule:evenodd;"
d="M 63406.4,29196.9
63406.4,28803.1
62422.1,28803.1
62422.1,29196.9
Z" /> 
<path style="fill:#000000; fill-opacity:1.0; 
stroke:#000000; stroke-width:0; stroke-opacity:1; 
stroke-linecap:round; stroke-linejoin:round;fill-rule:evenodd;"
d="M 63406.4,29984.3
63406.4,29590.6
62422.1,29590.6
62422.1,29984.3
Z" /> 
<path style="fill:#000000; fill-opacity:1.0; 
stroke:#000000; stroke-width:0; stroke-opacity:1; 
stroke-linecap:round; stroke-linejoin:round;fill-rule:evenodd;"
d="M 63406.4,30771.7
63406.4,30378
62422.1,30378
62422.1,30771.7
Z" /> 
<path style="fill:#000000; fill-opacity:1.0; 
stroke:#000000; stroke-width:0; stroke-opacity:1; 
stroke-linecap:round; stroke-linejoin:round;fill-rule:evenodd;"
d="M 63406.4,31559.1
63406.4,31165.4
62422.1,31165.4
62422.1,31559.1
Z" /> 
<path style="fill:#000000; fill-opacity:1.0; 
stroke:#000000; stroke-width:0; stroke-opacity:1; 
stroke-linecap:round; stroke-linejoin:round;fill-rule:evenodd;"
d="M 63406.4,32346.5
63406.4,31952.8
62422.1,31952.8
62422.1,32346.5
Z" /> 
<path style="fill:#000000; fill-opacity:1.0; 
stroke:#000000; stroke-width:0; stroke-opacity:1; 
stroke-linecap:round; stroke-linejoin:round;fill-rule:evenodd;"
d="M 63406.4,33133.9
63406.4,32740.2
62422.1,32740.2
62422.1,33133.9
Z" /> 
<path style="fill:#000000; fill-opacity:1.0; 
stroke:#000000; stroke-width:0; stroke-opacity:1; 
stroke-linecap:round; stroke-linejoin:round;fill-rule:evenodd;"
d="M 63406.4,33921.3
63406.4,33527.6
62422.1,33527.6
62422.1,33921.3
Z" /> 
<path style="fill:#000000; fill-opacity:1.0; 
stroke:#000000; stroke-width:0; stroke-opacity:1; 
stroke-linecap:round; stroke-linejoin:round;fill-rule:evenodd;"
d="M 63406.4,34708.7
63406.4,34315
62422.1,34315
62422.1,34708.7
Z" /> 
<path style="fill:#000000; fill-opacity:1.0; 
stroke:#000000; stroke-width:0; stroke-opacity:1; 
stroke-linecap:round; stroke-linejoin:round;fill-rule:evenodd;"
d="M 57422.1,34708.7
57422.1,34315
56437.9,34315
56437.9,34708.7
Z" /> 
<path style="fill:#000000; fill-opacity:1.0; 
stroke:#000000; stroke-width:0; stroke-opacity:1; 
stroke-linecap:round; stroke-linejoin:round;fill-rule:evenodd;"
d="M 57422.1,33921.3
57422.1,33527.6
56437.9,33527.6
56437.9,33921.3
Z" /> 
<path style="fill:#000000; fill-opacity:1.0; 
stroke:#000000; stroke-width:0; stroke-opacity:1; 
stroke-linecap:round; stroke-linejoin:round;fill-rule:evenodd;"
d="M 57422.1,33133.9
57422.1,32740.2
56437.9,32740.2
56437.9,33133.9
Z" /> 
<path style="fill:#000000; fill-opacity:1.0; 
stroke:#000000; stroke-width:0; stroke-opacity:1; 
stroke-linecap:round; stroke-linejoin:round;fill-rule:evenodd;"
d="M 57422.1,32346.5
57422.1,31952.8
56437.9,31952.8
56437.9,32346.5
Z" /> 
<path style="fill:#000000; fill-opacity:1.0; 
stroke:#000000; stroke-width:0; stroke-opacity:1; 
stroke-linecap:round; stroke-linejoin:round;fill-rule:evenodd;"
d="M 57422.1,31559.1
57422.1,31165.4
56437.9,31165.4
56437.9,31559.1
Z" /> 
<path style="fill:#000000; fill-opacity:1.0; 
stroke:#000000; stroke-width:0; stroke-opacity:1; 
stroke-linecap:round; stroke-linejoin:round;fill-rule:evenodd;"
d="M 57422.1,30771.7
57422.1,30378
56437.9,30378
56437.9,30771.7
Z" /> 
<path style="fill:#000000; fill-opacity:1.0; 
stroke:#000000; stroke-width:0; stroke-opacity:1; 
stroke-linecap:round; stroke-linejoin:round;fill-rule:evenodd;"
d="M 57422.1,29984.3
57422.1,29590.6
56437.9,29590.6
56437.9,29984.3
Z" /> 
<path style="fill:#000000; fill-opacity:1.0; 
stroke:#000000; stroke-width:0; stroke-opacity:1; 
stroke-linecap:round; stroke-linejoin:round;fill-rule:evenodd;"
d="M 57422.1,29196.9
57422.1,28803.1
56437.9,28803.1
56437.9,29196.9
Z" /> 
</g>
<g >
</g>
<g style="fill:#000000; fill-opacity:1.0; 
stroke:#000000; stroke-width:0; stroke-opacity:1; 
stroke-linecap:round; stroke-linejoin:round;">
<path style="fill:#000000; fill-opacity:1.0; 
stroke:#000000; stroke-width:0; stroke-opacity:1; 
stroke-linecap:round; stroke-linejoin:round;fill-rule:evenodd;"
d="M 66634.7,44424
67225.3,44424
67225.3,43636.6
66634.7,43636.6
Z" /> 
<path style="fill:#000000; fill-opacity:1.0; 
stroke:#000000; stroke-width:0; stroke-opacity:1; 
stroke-linecap:round; stroke-linejoin:round;fill-rule:evenodd;"
d="M 64823.7,44424
65414.3,44424
65414.3,43636.6
64823.7,43636.6
Z" /> 
<path style="fill:#000000; fill-opacity:1.0; 
stroke:#000000; stroke-width:0; stroke-opacity:1; 
stroke-linecap:round; stroke-linejoin:round;fill-rule:evenodd;"
d="M 65729.2,44424
66319.8,44424
66319.8,43636.6
65729.2,43636.6
Z" /> 
<path style="fill:#000000; fill-opacity:1.0; 
stroke:#000000; stroke-width:0; stroke-opacity:1; 
stroke-linecap:round; stroke-linejoin:round;fill-rule:evenodd;"
d="M 65276.5,41943.7
66772.5,41943.7
66772.5,41156.3
65276.5,41156.3
Z" /> 
</g>
<g >
</g>
<g style="fill:#000000; fill-opacity:1.0; 
stroke:#000000; stroke-width:0; stroke-opacity:1; 
stroke-linecap:round; stroke-linejoin:round;">
<path style="fill:#000000; fill-opacity:1.0; 
stroke:#000000; stroke-width:0; stroke-opacity:1; 
stroke-linecap:round; stroke-linejoin:round;fill-rule:evenodd;"
d="M 54234.7,43545.3
54825.3,43545.3
54825.3,42954.7
54234.7,42954.7
Z" /> 
<path style="fill:#000000; fill-opacity:1.0; 
stroke:#000000; stroke-width:0; stroke-opacity:1; 
stroke-linecap:round; stroke-linejoin:round;fill-rule:evenodd;"
d="M 54234.7,46616.1
54825.3,46616.1
54825.3,46025.6
54234.7,46025.6
Z" /> 
</g>
<g >
</g>
<g style="fill:#000000; fill-opacity:1.0; 
stroke:#000000; stroke-width:0; stroke-opacity:1; 
stroke-linecap:round; stroke-linejoin:round;">
<path style="fill:#000000; fill-opacity:1.0; 
stroke:#000000; stroke-width:0; stroke-opacity:1; 
stroke-linecap:round; stroke-linejoin:round;fill-rule:evenodd;"
d="M 54513.7,38815.4
54482.5,38836.2
54461.7,38867.3
54454.4,38904
54454.4,39096
54461.7,39132.7
54482.5,39163.8
54513.7,39184.6
54550.4,39191.9
54909.6,39191.9
54946.3,39184.6
54977.5,39163.8
54998.3,39132.7
55005.6,39096
55005.6,38904
54998.3,38867.3
54977.5,38836.2
54946.3,38815.4
54909.6,38808.1
54550.4,38808.1
Z" /> 
<path style="fill:#000000; fill-opacity:1.0; 
stroke:#000000; stroke-width:0; stroke-opacity:1; 
stroke-linecap:round; stroke-linejoin:round;fill-rule:evenodd;"
d="M 54513.7,39553.6
54482.5,39574.4
54461.7,39605.5
54454.4,39642.2
54454.4,39834.2
54461.7,39870.9
54482.5,39902
54513.7,39922.8
54550.4,39930.1
54909.6,39930.1
54946.3,39922.8
54977.5,39902
54998.3,39870.9
55005.6,39834.2
55005.6,39642.2
54998.3,39605.5
54977.5,39574.4
54946.3,39553.6
54909.6,39546.3
54550.4,39546.3
Z" /> 
</g>
<g >
</g>
<g style="fill:#000000; fill-opacity:1.0; 
stroke:#000000; stroke-width:0; stroke-opacity:1; 
stroke-linecap:round; stroke-linejoin:round;">
<path style="fill:#000000; fill-opacity:1.0; 
stroke:#000000; stroke-width:0; stroke-opacity:1; 
stroke-linecap:round; stroke-linejoin:round;fill-rule:evenodd;"
d="M 56785.5,39469.9
56754.4,39490.7
56733.6,39521.8
56726.3,39558.6
56726.3,39917.8
56733.6,39954.5
56754.4,39985.7
56785.5,40006.5
56822.2,40013.8
57014.2,40013.8
57050.9,40006.5
57082,39985.7
57102.8,39954.5
57110.1,39917.8
57110.1,39558.6
57102.8,39521.8
57082,39490.7
57050.9,39469.9
57014.2,39462.6
56822.2,39462.6
Z" /> 
<path style="fill:#000000; fill-opacity:1.0; 
stroke:#000000; stroke-width:0; stroke-opacity:1; 
stroke-linecap:round; stroke-linejoin:round;fill-rule:evenodd;"
d="M 56047.3,39469.9
56016.2,39490.7
55995.4,39521.8
55988.1,39558.6
55988.1,39917.8
55995.4,39954.5
56016.2,39985.7
56047.3,40006.5
56084,40013.8
56276,40013.8
56312.7,40006.5
56343.8,39985.7
56364.6,39954.5
56371.9,39917.8
56371.9,39558.6
56364.6,39521.8
56343.8,39490.7
56312.7,39469.9
56276,39462.6
56084,39462.6
Z" /> 
</g>
<g >
</g>
<g style="fill:#000000; fill-opacity:1.0; 
stroke:#000000; stroke-width:0; stroke-opacity:1; 
stroke-linecap:round; stroke-linejoin:round;">
<path style="fill:#000000; fill-opacity:1.0; 
stroke:#000000; stroke-width:0; stroke-opacity:1; 
stroke-linecap:round; stroke-linejoin:round;fill-rule:evenodd;"
d="M 60013.7,42977.2
59982.5,42998
59961.7,43029.1
59954.4,43065.8
59954.4,43257.8
59961.7,43294.5
59982.5,43325.6
60013.7,43346.4
60050.4,43353.7
60409.6,43353.7
60446.3,43346.4
60477.5,43325.6
60498.3,43294.5
60505.6,43257.8
60505.6,43065.8
60498.3,43029.1
60477.5,42998
60446.3,42977.2
60409.6,42969.9
60050.4,42969.9
Z" /> 
<path style="fill:#000000; fill-opacity:1.0; 
stroke:#000000; stroke-width:0; stroke-opacity:1; 
stroke-linecap:round; stroke-linejoin:round;fill-rule:evenodd;"
d="M 60013.7,43715.4
59982.5,43736.2
59961.7,43767.3
59954.4,43804
59954.4,43996
59961.7,44032.7
59982.5,44063.8
60013.7,44084.6
60050.4,44091.9
60409.6,44091.9
60446.3,44084.6
60477.5,44063.8
60498.3,44032.7
60505.6,43996
60505.6,43804
60498.3,43767.3
60477.5,43736.2
60446.3,43715.4
60409.6,43708.1
60050.4,43708.1
Z" /> 
</g>
<g >
</g>
<g style="fill:#000000; fill-opacity:1.0; 
stroke:#000000; stroke-width:0; stroke-opacity:1; 
stroke-linecap:round; stroke-linejoin:round;">
<path style="fill:#000000; fill-opacity:1.0; 
stroke:#000000; stroke-width:0; stroke-opacity:1; 
stroke-linecap:round; stroke-linejoin:round;fill-rule:evenodd;"
d="M 59013.7,42977.2
58982.5,42998
58961.7,43029.1
58954.4,43065.8
58954.4,43257.8
58961.7,43294.5
58982.5,43325.6
59013.7,43346.4
59050.4,43353.7
59409.6,43353.7
59446.3,43346.4
59477.5,43325.6
59498.3,43294.5
59505.6,43257.8
59505.6,43065.8
59498.3,43029.1
59477.5,42998
59446.3,42977.2
59409.6,42969.9
59050.4,42969.9
Z" /> 
<path style="fill:#000000; fill-opacity:1.0; 
stroke:#000000; stroke-width:0; stroke-opacity:1; 
stroke-linecap:round; stroke-linejoin:round;fill-rule:evenodd;"
d="M 59013.7,43715.4
58982.5,43736.2
58961.7,43767.3
58954.4,43804
58954.4,43996
58961.7,44032.7
58982.5,44063.8
59013.7,44084.6
59050.4,44091.9
59409.6,44091.9
59446.3,44084.6
59477.5,44063.8
59498.3,44032.7
59505.6,43996
59505.6,43804
59498.3,43767.3
59477.5,43736.2
59446.3,43715.4
59409.6,43708.1
59050.4,43708.1
Z" /> 
</g>
<g >
</g>
<g style="fill:#000000; fill-opacity:1.0; 
stroke:#000000; stroke-width:0; stroke-opacity:1; 
stroke-linecap:round; stroke-linejoin:round;">
<path style="fill:#000000; fill-opacity:1.0; 
stroke:#000000; stroke-width:0; stroke-opacity:1; 
stroke-linecap:round; stroke-linejoin:round;fill-rule:evenodd;"
d="M 64413.7,35053.6
64382.5,35074.4
64361.7,35105.5
64354.4,35142.2
64354.4,35334.2
64361.7,35370.9
64382.5,35402
64413.7,35422.8
64450.4,35430.1
64809.6,35430.1
64846.3,35422.8
64877.5,35402
64898.3,35370.9
64905.6,35334.2
64905.6,35142.2
64898.3,35105.5
64877.5,35074.4
64846.3,35053.6
64809.6,35046.3
64450.4,35046.3
Z" /> 
<path style="fill:#000000; fill-opacity:1.0; 
stroke:#000000; stroke-width:0; stroke-opacity:1; 
stroke-linecap:round; stroke-linejoin:round;fill-rule:evenodd;"
d="M 64413.7,34315.4
64382.5,34336.2
64361.7,34367.3
64354.4,34404
64354.4,34596
64361.7,34632.7
64382.5,34663.8
64413.7,34684.6
64450.4,34691.9
64809.6,34691.9
64846.3,34684.6
64877.5,34663.8
64898.3,34632.7
64905.6,34596
64905.6,34404
64898.3,34367.3
64877.5,34336.2
64846.3,34315.4
64809.6,34308.1
64450.4,34308.1
Z" /> 
</g>
<g >
</g>
<g style="fill:#000000; fill-opacity:1.0; 
stroke:#000000; stroke-width:0; stroke-opacity:1; 
stroke-linecap:round; stroke-linejoin:round;">
<path style="fill:#000000; fill-opacity:1.0; 
stroke:#000000; stroke-width:0; stroke-opacity:1; 
stroke-linecap:round; stroke-linejoin:round;fill-rule:evenodd;"
d="M 62944.7,43485.8
62912.8,43507.2
62891.4,43539.1
62883.9,43576.8
62883.9,44423.2
62891.4,44460.9
62912.8,44492.8
62944.7,44514.2
62982.4,44521.7
63277.6,44521.7
63315.3,44514.2
63347.2,44492.8
63368.6,44460.9
63376.1,44423.2
63376.1,43576.8
63368.6,43539.1
63347.2,43507.2
63315.3,43485.8
63277.6,43478.3
62982.4,43478.3
Z" /> 
<path style="fill:#000000; fill-opacity:1.0; 
stroke:#000000; stroke-width:0; stroke-opacity:1; 
stroke-linecap:round; stroke-linejoin:round;fill-rule:evenodd;"
d="M 61842.3,43485.8
61810.4,43507.2
61789.1,43539.1
61781.6,43576.8
61781.6,44423.2
61789.1,44460.9
61810.4,44492.8
61842.3,44514.2
61880,44521.7
62175.3,44521.7
62212.9,44514.2
62244.9,44492.8
62266.2,44460.9
62273.7,44423.2
62273.7,43576.8
62266.2,43539.1
62244.9,43507.2
62212.9,43485.8
62175.3,43478.3
61880,43478.3
Z" /> 
</g>
<g >
</g>
<g style="fill:#000000; fill-opacity:1.0; 
stroke:#000000; stroke-width:0; stroke-opacity:1; 
stroke-linecap:round; stroke-linejoin:round;">
<path style="fill:#000000; fill-opacity:1.0; 
stroke:#000000; stroke-width:0; stroke-opacity:1; 
stroke-linecap:round; stroke-linejoin:round;fill-rule:evenodd;"
d="M 52672.5,41439.8
52987.5,41439.8
52987.5,41085.4
52672.5,41085.4
Z" /> 
<path style="fill:#000000; fill-opacity:1.0; 
stroke:#000000; stroke-width:0; stroke-opacity:1; 
stroke-linecap:round; stroke-linejoin:round;fill-rule:evenodd;"
d="M 52298.5,42227.2
52613.5,42227.2
52613.5,41872.8
52298.5,41872.8
Z" /> 
<path style="fill:#000000; fill-opacity:1.0; 
stroke:#000000; stroke-width:0; stroke-opacity:1; 
stroke-linecap:round; stroke-linejoin:round;fill-rule:evenodd;"
d="M 53046.5,42227.2
53361.5,42227.2
53361.5,41872.8
53046.5,41872.8
Z" /> 
</g>
<g >
</g>
<g style="fill:#000000; fill-opacity:1.0; 
stroke:#000000; stroke-width:0; stroke-opacity:1; 
stroke-linecap:round; stroke-linejoin:round;">
<path style="fill:#000000; fill-opacity:1.0; 
stroke:#000000; stroke-width:0; stroke-opacity:1; 
stroke-linecap:round; stroke-linejoin:round;fill-rule:evenodd;"
d="M 54572.5,41439.8
54887.5,41439.8
54887.5,41085.4
54572.5,41085.4
Z" /> 
<path style="fill:#000000; fill-opacity:1.0; 
stroke:#000000; stroke-width:0; stroke-opacity:1; 
stroke-linecap:round; stroke-linejoin:round;fill-rule:evenodd;"
d="M 54198.5,42227.2
54513.5,42227.2
54513.5,41872.8
54198.5,41872.8
Z" /> 
<path style="fill:#000000; fill-opacity:1.0; 
stroke:#000000; stroke-width:0; stroke-opacity:1; 
stroke-linecap:round; stroke-linejoin:round;fill-rule:evenodd;"
d="M 54946.5,42227.2
55261.5,42227.2
55261.5,41872.8
54946.5,41872.8
Z" /> 
</g>
<g >
</g>
<g style="fill:#000000; fill-opacity:1.0; 
stroke:#000000; stroke-width:0; stroke-opacity:1; 
stroke-linecap:round; stroke-linejoin:round;">
</g>
<g style="fill:#000000; fill-opacity:1.0; 
stroke:#000000; stroke-width:826.772; stroke-opacity:1; 
stroke-linecap:round; stroke-linejoin:round;">
</g>
<g style="fill:#000000; fill-opacity:0.0; 
stroke:#000000; stroke-width:826.772; stroke-opacity:1; 
stroke-linecap:round; stroke-linejoin:round;">
<path d="M66930 35000
L66930 35000
" />
<path d="M66930 34000
L66930 34000
" />
<path d="M66930 33000
L66930 33000
" />
<path d="M66930 32000
L66930 32000
" />
<path d="M66930 31000
L66930 31000
" />
<path d="M66930 30000
L66930 30000
" />
<path d="M66930 29000
L66930 29000
" />
</g>
<g style="fill:#000000; fill-opacity:0.0; 
stroke:#000000; stroke-width:0; stroke-opacity:1; 
stroke-linecap:round; stroke-linejoin:round;">
</g>
<g style="fill:#000000; fill-opacity:1.0; 
stroke:#000000; stroke-width:0; stroke-opacity:1; 
stroke-linecap:round; stroke-linejoin:round;">
<path style="fill:#000000; fill-opacity:1.0; 
stroke:#000000; stroke-width:0; stroke-opacity:1; 
stroke-linecap:round; stroke-linejoin:round;fill-rule:evenodd;"
d="M 67343.4,28413.4
67343.4,27586.6
66516.6,27586.6
66516.6,28413.4
Z" /> 
</g>
<g >
</g>
<g style="fill:#000000; fill-opacity:1.0; 
stroke:#000000; stroke-width:0; stroke-opacity:1; 
stroke-linecap:round; stroke-linejoin:round;">
<path style="fill:#000000; fill-opacity:1.0; 
stroke:#000000; stroke-width:0; stroke-opacity:1; 
stroke-linecap:round; stroke-linejoin:round;fill-rule:evenodd;"
d="M 59560.7,46874
59560.7,46126
59167,46126
59167,46874
Z" /> 
<path style="fill:#000000; fill-opacity:1.0; 
stroke:#000000; stroke-width:0; stroke-opacity:1; 
stroke-linecap:round; stroke-linejoin:round;fill-rule:evenodd;"
d="M 60781.2,46874
60781.2,46126
60072.5,46126
60072.5,46874
Z" /> 
<path style="fill:#000000; fill-opacity:1.0; 
stroke:#000000; stroke-width:0; stroke-opacity:1; 
stroke-linecap:round; stroke-linejoin:round;fill-rule:evenodd;"
d="M 58970.2,46755.9
58970.2,46244.1
58320.6,46244.1
58320.6,46755.9
Z" /> 
<path style="fill:#000000; fill-opacity:1.0; 
stroke:#000000; stroke-width:0; stroke-opacity:1; 
stroke-linecap:round; stroke-linejoin:round;fill-rule:evenodd;"
d="M 61627.6,46755.9
61627.6,46244.1
60978,46244.1
60978,46755.9
Z" /> 
<path style="fill:#000000; fill-opacity:1.0; 
stroke:#000000; stroke-width:0; stroke-opacity:1; 
stroke-linecap:round; stroke-linejoin:round;fill-rule:evenodd;"
d="M 59275.3,45791.3
59275.3,45181.1
58714.3,45181.1
58714.3,45791.3
Z" /> 
<path style="fill:#000000; fill-opacity:1.0; 
stroke:#000000; stroke-width:0; stroke-opacity:1; 
stroke-linecap:round; stroke-linejoin:round;fill-rule:evenodd;"
d="M 61233.9,45791.3
61233.9,45181.1
60672.9,45181.1
60672.9,45791.3
Z" /> 
<path style="fill:#000000; fill-opacity:1.0; 
stroke:#000000; stroke-width:0; stroke-opacity:1; 
stroke-linecap:round; stroke-linejoin:round;fill-rule:evenodd;"
d="M 59550.9,45724.4
59550.9,45181.1
59373.7,45181.1
59373.7,45724.4
Z" /> 
<path style="fill:#000000; fill-opacity:1.0; 
stroke:#000000; stroke-width:0; stroke-opacity:1; 
stroke-linecap:round; stroke-linejoin:round;fill-rule:evenodd;"
d="M 59806.8,45724.4
59806.8,45181.1
59629.6,45181.1
59629.6,45724.4
Z" /> 
<path style="fill:#000000; fill-opacity:1.0; 
stroke:#000000; stroke-width:0; stroke-opacity:1; 
stroke-linecap:round; stroke-linejoin:round;fill-rule:evenodd;"
d="M 60062.7,45724.4
60062.7,45181.1
59885.5,45181.1
59885.5,45724.4
Z" /> 
<path style="fill:#000000; fill-opacity:1.0; 
stroke:#000000; stroke-width:0; stroke-opacity:1; 
stroke-linecap:round; stroke-linejoin:round;fill-rule:evenodd;"
d="M 60318.6,45724.4
60318.6,45181.1
60141.4,45181.1
60141.4,45724.4
Z" /> 
<path style="fill:#000000; fill-opacity:1.0; 
stroke:#000000; stroke-width:0; stroke-opacity:1; 
stroke-linecap:round; stroke-linejoin:round;fill-rule:evenodd;"
d="M 60574.5,45724.4
60574.5,45181.1
60397.3,45181.1
60397.3,45724.4
Z" /> 
</g>
<g >
</g>
<g style="fill:#000000; fill-opacity:1.0; 
stroke:#000000; stroke-width:0; stroke-opacity:1; 
stroke-linecap:round; stroke-linejoin:round;">
</g>
<g style="fill:#000000; fill-opacity:1.0; 
stroke:#000000; stroke-width:708.661; stroke-opacity:1; 
stroke-linecap:round; stroke-linejoin:round;">
</g>
<g style="fill:#000000; fill-opacity:0.0; 
stroke:#000000; stroke-width:708.661; stroke-opacity:1; 
stroke-linecap:round; stroke-linejoin:round;">
<path d="M52930 28000
L52930 28000
" />
<path d="M52930 29000
L52930 29000
" />
</g>
<g style="fill:#000000; fill-opacity:0.0; 
stroke:#000000; stroke-width:826.772; stroke-opacity:1; 
stroke-linecap:round; stroke-linejoin:round;">
<path d="M52930 30000
L52930 30000
" />
<path d="M52930 31000
L52930 31000
" />
<path d="M52930 32000
L52930 32000
" />
<path d="M52930 33000
L52930 33000
" />
<path d="M52930 34000
L52930 34000
" />
</g>
<g style="fill:#000000; fill-opacity:0.0; 
stroke:#000000; stroke-width:0; stroke-opacity:1; 
stroke-linecap:round; stroke-linejoin:round;">
</g>
<g style="fill:#000000; fill-opacity:1.0; 
stroke:#000000; stroke-width:0; stroke-opacity:1; 
stroke-linecap:round; stroke-linejoin:round;">
<path style="fill:#000000; fill-opacity:1.0; 
stroke:#000000; stroke-width:0; stroke-opacity:1; 
stroke-linecap:round; stroke-linejoin:round;fill-rule:evenodd;"
d="M 52516.6,34586.6
52516.6,35413.4
53343.4,35413.4
53343.4,34586.6
Z" /> 
</g>
<g >
</g>
<g style="fill:#000000; fill-opacity:1.0; 
stroke:#000000; stroke-width:0; stroke-opacity:1; 
stroke-linecap:round; stroke-linejoin:round;">
<path style="fill:#000000; fill-opacity:1.0; 
stroke:#000000; stroke-width:0; stroke-opacity:1; 
stroke-linecap:round; stroke-linejoin:round;fill-rule:evenodd;"
d="M 67913.6,28815.4
67882.5,28836.2
67861.7,28867.3
67854.4,28904
67854.4,29096
67861.7,29132.7
67882.5,29163.8
67913.6,29184.6
67950.4,29191.9
68309.6,29191.9
68346.4,29184.6
68377.5,29163.8
68398.3,29132.7
68405.6,29096
68405.6,28904
68398.3,28867.3
68377.5,28836.2
68346.4,28815.4
68309.6,28808.1
67950.4,28808.1
Z" /> 
<path style="fill:#000000; fill-opacity:1.0; 
stroke:#000000; stroke-width:0; stroke-opacity:1; 
stroke-linecap:round; stroke-linejoin:round;fill-rule:evenodd;"
d="M 67913.6,29553.6
67882.5,29574.4
67861.7,29605.5
67854.4,29642.2
67854.4,29834.2
67861.7,29870.9
67882.5,29902
67913.6,29922.8
67950.4,29930.1
68309.6,29930.1
68346.4,29922.8
68377.5,29902
68398.3,29870.9
68405.6,29834.2
68405.6,29642.2
68398.3,29605.5
68377.5,29574.4
68346.4,29553.6
68309.6,29546.3
67950.4,29546.3
Z" /> 
</g>
<g >
</g>
<g style="fill:#000000; fill-opacity:1.0; 
stroke:#000000; stroke-width:0; stroke-opacity:1; 
stroke-linecap:round; stroke-linejoin:round;">
<path style="fill:#000000; fill-opacity:1.0; 
stroke:#000000; stroke-width:0; stroke-opacity:1; 
stroke-linecap:round; stroke-linejoin:round;fill-rule:evenodd;"
d="M 56344.7,37263
56312.8,37284.3
56291.4,37316.3
56283.9,37353.9
56283.9,37846.1
56291.4,37883.7
56312.8,37915.7
56344.7,37937
56382.4,37944.5
56677.6,37944.5
56715.3,37937
56747.2,37915.7
56768.6,37883.7
56776.1,37846.1
56776.1,37353.9
56768.6,37316.3
56747.2,37284.3
56715.3,37263
56677.6,37255.5
56382.4,37255.5
Z" /> 
<path style="fill:#000000; fill-opacity:1.0; 
stroke:#000000; stroke-width:0; stroke-opacity:1; 
stroke-linecap:round; stroke-linejoin:round;fill-rule:evenodd;"
d="M 55242.3,37263
55210.4,37284.3
55189.1,37316.3
55181.6,37353.9
55181.6,37846.1
55189.1,37883.7
55210.4,37915.7
55242.3,37937
55280,37944.5
55575.3,37944.5
55612.9,37937
55644.9,37915.7
55666.2,37883.7
55673.7,37846.1
55673.7,37353.9
55666.2,37316.3
55644.9,37284.3
55612.9,37263
55575.3,37255.5
55280,37255.5
Z" /> 
</g>
<g >
</g>
<g style="fill:#000000; fill-opacity:1.0; 
stroke:#000000; stroke-width:0; stroke-opacity:1; 
stroke-linecap:round; stroke-linejoin:round;">
<path style="fill:#000000; fill-opacity:1.0; 
stroke:#000000; stroke-width:0; stroke-opacity:1; 
stroke-linecap:round; stroke-linejoin:round;fill-rule:evenodd;"
d="M 56397.3,41731.7
56366.2,41752.5
56345.4,41783.7
56338.1,41820.4
56338.1,42179.6
56345.4,42216.3
56366.2,42247.5
56397.3,42268.3
56434,42275.6
56626,42275.6
56662.7,42268.3
56693.8,42247.5
56714.6,42216.3
56721.9,42179.6
56721.9,41820.4
56714.6,41783.7
56693.8,41752.5
56662.7,41731.7
56626,41724.4
56434,41724.4
Z" /> 
<path style="fill:#000000; fill-opacity:1.0; 
stroke:#000000; stroke-width:0; stroke-opacity:1; 
stroke-linecap:round; stroke-linejoin:round;fill-rule:evenodd;"
d="M 57135.5,41731.7
57104.4,41752.5
57083.6,41783.7
57076.3,41820.4
57076.3,42179.6
57083.6,42216.3
57104.4,42247.5
57135.5,42268.3
57172.2,42275.6
57364.2,42275.6
57400.9,42268.3
57432,42247.5
57452.8,42216.3
57460.1,42179.6
57460.1,41820.4
57452.8,41783.7
57432,41752.5
57400.9,41731.7
57364.2,41724.4
57172.2,41724.4
Z" /> 
</g>
<g >
</g>
<g style="fill:#000000; fill-opacity:1.0; 
stroke:#000000; stroke-width:0; stroke-opacity:1; 
stroke-linecap:round; stroke-linejoin:round;">
<path style="fill:#000000; fill-opacity:1.0; 
stroke:#000000; stroke-width:0; stroke-opacity:1; 
stroke-linecap:round; stroke-linejoin:round;fill-rule:evenodd;"
d="M 66729.9,39144.9
66698,39166.2
66676.7,39198.2
66669.2,39235.8
66669.2,39964.2
66676.7,40001.8
66698,40033.8
66729.9,40055.1
66767.6,40062.6
67092.4,40062.6
67130.1,40055.1
67162,40033.8
67183.3,40001.8
67190.8,39964.2
67190.8,39235.8
67183.3,39198.2
67162,39166.2
67130.1,39144.9
67092.4,39137.4
66767.6,39137.4
Z" /> 
<path style="fill:#000000; fill-opacity:1.0; 
stroke:#000000; stroke-width:0; stroke-opacity:1; 
stroke-linecap:round; stroke-linejoin:round;fill-rule:evenodd;"
d="M 65519.3,39144.9
65487.4,39166.2
65466,39198.2
65458.5,39235.8
65458.5,39964.2
65466,40001.8
65487.4,40033.8
65519.3,40055.1
65557,40062.6
65881.8,40062.6
65919.4,40055.1
65951.4,40033.8
65972.7,40001.8
65980.2,39964.2
65980.2,39235.8
65972.7,39198.2
65951.4,39166.2
65919.4,39144.9
65881.8,39137.4
65557,39137.4
Z" /> 
</g>
<g >
</g>
<g style="fill:#000000; fill-opacity:1.0; 
stroke:#000000; stroke-width:0; stroke-opacity:1; 
stroke-linecap:round; stroke-linejoin:round;">
<path style="fill:#000000; fill-opacity:1.0; 
stroke:#000000; stroke-width:0; stroke-opacity:1; 
stroke-linecap:round; stroke-linejoin:round;fill-rule:evenodd;"
d="M 66729.9,45344.9
66698,45366.2
66676.7,45398.2
66669.2,45435.8
66669.2,46164.2
66676.7,46201.8
66698,46233.8
66729.9,46255.1
66767.6,46262.6
67092.4,46262.6
67130.1,46255.1
67162,46233.8
67183.3,46201.8
67190.8,46164.2
67190.8,45435.8
67183.3,45398.2
67162,45366.2
67130.1,45344.9
67092.4,45337.4
66767.6,45337.4
Z" /> 
<path style="fill:#000000; fill-opacity:1.0; 
stroke:#000000; stroke-width:0; stroke-opacity:1; 
stroke-linecap:round; stroke-linejoin:round;fill-rule:evenodd;"
d="M 65519.3,45344.9
65487.4,45366.2
65466,45398.2
65458.5,45435.8
65458.5,46164.2
65466,46201.8
65487.4,46233.8
65519.3,46255.1
65557,46262.6
65881.8,46262.6
65919.4,46255.1
65951.4,46233.8
65972.7,46201.8
65980.2,46164.2
65980.2,45435.8
65972.7,45398.2
65951.4,45366.2
65919.4,45344.9
65881.8,45337.4
65557,45337.4
Z" /> 
</g>
<g >
</g>
<g style="fill:#000000; fill-opacity:1.0; 
stroke:#000000; stroke-width:0; stroke-opacity:1; 
stroke-linecap:round; stroke-linejoin:round;">
<path style="fill:#000000; fill-opacity:1.0; 
stroke:#000000; stroke-width:0; stroke-opacity:1; 
stroke-linecap:round; stroke-linejoin:round;fill-rule:evenodd;"
d="M 63659.1,45531.7
63628,45552.5
63607.2,45583.7
63599.9,45620.4
63599.9,45979.6
63607.2,46016.3
63628,46047.5
63659.1,46068.3
63695.8,46075.6
63887.8,46075.6
63924.5,46068.3
63955.6,46047.5
63976.4,46016.3
63983.7,45979.6
63983.7,45620.4
63976.4,45583.7
63955.6,45552.5
63924.5,45531.7
63887.8,45524.4
63695.8,45524.4
Z" /> 
<path style="fill:#000000; fill-opacity:1.0; 
stroke:#000000; stroke-width:0; stroke-opacity:1; 
stroke-linecap:round; stroke-linejoin:round;fill-rule:evenodd;"
d="M 64397.3,45531.7
64366.2,45552.5
64345.4,45583.7
64338.1,45620.4
64338.1,45979.6
64345.4,46016.3
64366.2,46047.5
64397.3,46068.3
64434,46075.6
64626,46075.6
64662.7,46068.3
64693.8,46047.5
64714.6,46016.3
64721.9,45979.6
64721.9,45620.4
64714.6,45583.7
64693.8,45552.5
64662.7,45531.7
64626,45524.4
64434,45524.4
Z" /> 
</g>
<g >
</g>
<g >
</g>
<g style="fill:#000000; fill-opacity:1.0; 
stroke:#000000; stroke-width:0; stroke-opacity:1; 
stroke-linecap:round; stroke-linejoin:round;">
</g>
<g style="fill:#000000; fill-opacity:1.0; 
stroke:#000000; stroke-width:157.48; stroke-opacity:1; 
stroke-linecap:round; stroke-linejoin:round;">
</g>
<g style="fill:#000000; fill-opacity:0.0; 
stroke:#000000; stroke-width:157.48; stroke-opacity:1; 
stroke-linecap:round; stroke-linejoin:round;">
<path d="M57293 38613
L57293 38836
" />
<path d="M57293 36350
L57293 38613
" />
<path d="M62027 38600
L57306 38600
" />
<path d="M57306 38600
L57293 38613
" />
<path d="M57293 38836
L56918 39211
" />
<path d="M56555 36350
L51730 36350
" />
<path d="M55430 33000
L54330 33000
" />
<path d="M54330 33000
L52930 33000
" />
<path d="M55779 32650
L55430 33000
" />
<path d="M56930 32149
L55779 32149
" />
<path d="M55779 32149
L55779 32650
" />
<path d="M54530 32000
L52930 32000
" />
<path d="M55330 32000
L54530 32000
" />
<path d="M56930 31362
L55967 31362
" />
<path d="M55967 31362
L55330 32000
" />
<path d="M56042 29787
L55830 30000
" />
<path d="M56930 29787
L56042 29787
" />
<path d="M55830 30000
L53730 30000
" />
<path d="M53730 30000
L52930 30000
" />
<path d="M55730 31000
L54730 31000
" />
<path d="M56930 30574
L56155 30574
" />
<path d="M56155 30574
L55730 31000
" />
<path d="M56092 33237
L55330 34000
" />
<path d="M55330 34000
L54130 34000
" />
<path d="M56930 32937
L56092 32937
" />
<path d="M56092 32937
L56092 33237
" />
<path d="M56105 33724
L55530 34300
" />
<path d="M55530 34300
L55530 35000
" />
<path d="M56930 33724
L56105 33724
" />
<path d="M56930 35500
L56930 36700
" />
<path d="M56930 34511
L56930 35500
" />
<path d="M55991 35738
L56230 35500
" />
<path d="M56230 35500
L56930 35500
" />
<path d="M55530 35738
L55991 35738
" />
<path d="M55530 35000
L52930 35000
" />
<path d="M66019 31010
L66030 31000
" />
<path d="M63892 32937
L64530 32300
" />
<path d="M64769 31010
L66019 31010
" />
<path d="M64530 31250
L64769 31010
" />
<path d="M64530 32300
L64530 31250
" />
<path d="M62914 32937
L63892 32937
" />
<path d="M66135 31000
L66145 31010
" />
<path d="M66030 31000
L66135 31000
" />
<path d="M66145 31010
L66308 31010
" />
<path d="M66308 31010
L66319 31000
" />
<path d="M66319 31000
L66930 31000
" />
<path d="M66030 30000
L66019 30010
" />
<path d="M66135 30000
L66030 30000
" />
<path d="M66308 30010
L66145 30010
" />
<path d="M64180 30300
L64180 31850
" />
<path d="M66145 30010
L66135 30000
" />
<path d="M66930 30000
L66319 30000
" />
<path d="M66319 30000
L66308 30010
" />
<path d="M66019 30010
L64469 30010
" />
<path d="M64469 30010
L64180 30300
" />
<path d="M64180 31850
L63880 32149
" />
<path d="M63880 32149
L62914 32149
" />
<path d="M63867 31362
L63867 29037
" />
<path d="M63867 29037
L63845 29015
" />
<path d="M51730 36350
L51730 33000
" />
<path d="M51730 38500
L51730 36350
" />
<path d="M56930 36700
L56530 37100
" />
<path d="M56530 37100
L56530 37600
" />
<path d="M56180 39738
L54730 39738
" />
</g>
<g style="fill:#000000; fill-opacity:0.0; 
stroke:#000000; stroke-width:98.4252; stroke-opacity:1; 
stroke-linecap:round; stroke-linejoin:round;">
<path d="M59336 42243
L59230 42350
" />
<path d="M59336 41764
L59336 42243
" />
<path d="M59230 42350
L58280 42350
" />
<path d="M58280 42350
L57930 42000
" />
<path d="M57930 42000
L57268 42000
" />
</g>
<g style="fill:#000000; fill-opacity:0.0; 
stroke:#000000; stroke-width:157.48; stroke-opacity:1; 
stroke-linecap:round; stroke-linejoin:round;">
<path d="M56530 44400
L57730 45600
" />
<path d="M56530 42000
L56530 44400
" />
<path d="M57730 45600
L57730 45700
" />
<path d="M56530 40400
L56530 42000
" />
<path d="M56530 37600
L56530 40400
" />
<path d="M54930 37600
L54730 37800
" />
<path d="M54730 37800
L54730 39000
" />
<path d="M55427 37600
L54930 37600
" />
<path d="M51330 26950
L51330 40850
" />
<path d="M52380 25900
L51330 26950
" />
<path d="M67580 25900
L52380 25900
" />
<path d="M68130 29000
L68130 26450
" />
<path d="M51330 40850
L52130 41650
" />
<path d="M55080 42025
L55104 42050
" />
<path d="M68130 26450
L67580 25900
" />
<path d="M52130 41650
L52830 41650
" />
<path d="M52830 41650
L52830 42550
" />
<path d="M53730 42550
L53730 41650
" />
<path d="M55080 41650
L55080 42025
" />
<path d="M52830 42550
L53730 42550
" />
<path d="M53730 41650
L55080 41650
" />
<path d="M54130 39000
L54130 40600
" />
<path d="M54730 39000
L54130 39000
" />
<path d="M54130 40600
L53204 41525
" />
<path d="M53204 41525
L53204 42050
" />
<path d="M52455 43174
L52455 45725
" />
<path d="M52455 42625
L52455 43174
" />
<path d="M54104 42625
L53555 43174
" />
<path d="M53555 43174
L52455 43174
" />
<path d="M51730 39750
L51730 38500
" />
<path d="M51730 40750
L51730 39750
" />
<path d="M51741 39738
L51730 39750
" />
<path d="M52242 41262
L51730 40750
" />
<path d="M52830 41262
L52242 41262
" />
</g>
<g style="fill:#000000; fill-opacity:0.0; 
stroke:#000000; stroke-width:98.4252; stroke-opacity:1; 
stroke-linecap:round; stroke-linejoin:round;">
<path d="M58280 41390
L58764 41390
" />
<path d="M58764 41390
L58765 41390
" />
<path d="M58280 39500
L58280 41390
" />
<path d="M58765 41635
L58894 41764
" />
<path d="M58894 41764
L59139 41764
" />
<path d="M58765 41390
L58765 41635
" />
</g>
<g style="fill:#000000; fill-opacity:0.0; 
stroke:#000000; stroke-width:157.48; stroke-opacity:1; 
stroke-linecap:round; stroke-linejoin:round;">
<path d="M62530 45800
L63791 45800
" />
<path d="M62230 45800
L62530 45800
" />
</g>
<g style="fill:#000000; fill-opacity:0.0; 
stroke:#000000; stroke-width:98.4252; stroke-opacity:1; 
stroke-linecap:round; stroke-linejoin:round;">
<path d="M62530 42600
L62530 45800
" />
<path d="M60330 42600
L62530 42600
" />
<path d="M59926 42196
L60330 42600
" />
<path d="M59926 41764
L59926 42196
" />
</g>
<g style="fill:#000000; fill-opacity:0.0; 
stroke:#000000; stroke-width:157.48; stroke-opacity:1; 
stroke-linecap:round; stroke-linejoin:round;">
<path d="M62914 33724
L63905 33724
" />
<path d="M65630 32000
L66930 32000
" />
<path d="M63905 33724
L65630 32000
" />
<path d="M56930 29000
L52930 29000
" />
<path d="M54730 31000
L52930 31000
" />
<path d="M54130 34000
L52930 34000
" />
<path d="M66930 39600
L66930 40400
" />
<path d="M66930 40400
L67530 41000
" />
<path d="M67530 41000
L67530 42700
" />
<path d="M66930 43300
L66930 44030
" />
<path d="M67530 42700
L66930 43300
" />
<path d="M66930 44030
L66930 45800
" />
<path d="M66024 41550
L66024 44030
" />
<path d="M65719 39600
L65719 40289
" />
<path d="M66024 40594
L66024 41550
" />
<path d="M65719 40289
L66024 40594
" />
<path d="M62914 31362
L63867 31362
" />
<path d="M66930 29000
L64830 29000
" />
<path d="M64830 29000
L62914 29000
" />
<path d="M66930 28000
L61730 28000
" />
<path d="M61730 28000
L61730 29800
" />
<path d="M62901 29800
L62914 29787
" />
<path d="M61730 29800
L62901 29800
" />
<path d="M62914 30574
L61755 30574
" />
<path d="M61755 30574
L61630 30700
" />
<path d="M65118 45788
L65130 45800
" />
<path d="M65118 44030
L65118 45788
" />
<path d="M65719 45800
L65130 45800
" />
<path d="M65130 45800
L64530 45800
" />
<path d="M63160 44030
L63130 44000
" />
<path d="M65118 44030
L63160 44030
" />
<path d="M61302 46500
L60426 46500
" />
<path d="M60426 46500
L59363 46500
" />
<path d="M59363 46500
L58645 46500
" />
<path d="M60953 45486
L61916 45486
" />
<path d="M61916 45486
L62230 45800
" />
<path d="M61302 46500
L62230 46500
" />
<path d="M62230 46500
L62230 45800
" />
<path d="M59028 45452
L58994 45486
" />
<path d="M59462 45452
L59028 45452
" />
<path d="M60485 45452
L60485 44744
" />
<path d="M61230 44000
L62027 44000
" />
<path d="M60485 44744
L61230 44000
" />
<path d="M60230 45452
L60230 43900
" />
<path d="M59974 45452
L59974 44744
" />
<path d="M59974 44744
L59830 44600
" />
<path d="M59830 44600
L59230 44600
" />
<path d="M59230 44600
L59230 43900
" />
<path d="M58030 46500
L56130 46500
" />
<path d="M55950 46320
L54530 46320
" />
<path d="M56130 46500
L55950 46320
" />
<path d="M58030 46500
L58645 46500
" />
<path d="M57630 46500
L58030 46500
" />
<path d="M57630 45800
L57630 46500
" />
<path d="M58994 45486
L57943 45486
" />
</g>
<g style="fill:#000000; fill-opacity:0.0; 
stroke:#000000; stroke-width:98.4252; stroke-opacity:1; 
stroke-linecap:round; stroke-linejoin:round;">
<path d="M59730 41764
L59730 42400
" />
<path d="M58630 42600
L58630 43500
" />
<path d="M59891 43500
L60230 43161
" />
<path d="M59279 42600
L58630 42600
" />
<path d="M58630 43500
L59891 43500
" />
<path d="M59533 42346
L59279 42600
" />
<path d="M59533 41764
L59533 42346
" />
<path d="M59230 42900
L59230 43161
" />
<path d="M59730 42400
L59230 42900
" />
<path d="M59926 40996
L59730 40800
" />
<path d="M59926 41764
L59926 40996
" />
</g>
<g style="fill:#000000; fill-opacity:0.0; 
stroke:#000000; stroke-width:157.48; stroke-opacity:1; 
stroke-linecap:round; stroke-linejoin:round;">
<path d="M57943 45486
L57730 45700
" />
<path d="M57730 45700
L57630 45800
" />
<path d="M66930 45800
L66930 46500
" />
<path d="M66930 46500
L66580 46850
" />
<path d="M66580 46850
L64980 46850
" />
<path d="M64980 46850
L64630 46500
" />
<path d="M64630 46500
L62230 46500
" />
<path d="M53050 46320
L54530 46320
" />
<path d="M52455 45725
L53050 46320
" />
<path d="M54530 42750
L54530 43250
" />
<path d="M54730 42550
L54530 42750
" />
<path d="M54930 42550
L54730 42550
" />
<path d="M55104 42375
L54930 42550
" />
<path d="M55104 42050
L55104 42375
" />
<path d="M54355 42050
L54355 42374
" />
<path d="M54355 42374
L54104 42625
" />
<path d="M52455 42050
L52455 42625
" />
<path d="M54730 39738
L54730 41262
" />
<path d="M51730 33000
L52930 33000
" />
<path d="M68130 29000
L66930 29000
" />
<path d="M68130 29738
L68130 34600
" />
<path d="M68130 34600
L67730 35000
" />
<path d="M67730 35000
L66930 35000
" />
<path d="M66930 35000
L66930 39600
" />
</g>
<g style="fill:#000000; fill-opacity:0.0; 
stroke:#000000; stroke-width:98.4252; stroke-opacity:1; 
stroke-linecap:round; stroke-linejoin:round;">
<path d="M57225 29787
L56930 29787
" />
</g>
<g style="fill:#000000; fill-opacity:0.0; 
stroke:#000000; stroke-width:157.48; stroke-opacity:1; 
stroke-linecap:round; stroke-linejoin:round;">
<path d="M62926 34500
L62914 34511
" />
<path d="M64630 34500
L62926 34500
" />
<path d="M63130 40000
L63130 44000
" />
<path d="M63830 38600
L63130 38600
" />
<path d="M65719 39600
L64830 39600
" />
<path d="M64830 39600
L63830 38600
" />
<path d="M63130 37300
L63130 38600
" />
<path d="M61130 35300
L63130 37300
" />
<path d="M61130 29950
L61130 35300
" />
<path d="M52930 28000
L59180 28000
" />
<path d="M59180 28000
L61130 29950
" />
<path d="M62168 35238
L61630 34700
" />
<path d="M64630 35238
L62168 35238
" />
<path d="M61630 30700
L61630 34700
" />
<path d="M64630 34500
L65330 34500
" />
<path d="M65719 34889
L65719 39600
" />
<path d="M65330 34500
L65719 34889
" />
</g>
<g style="fill:#000000; fill-opacity:0.0; 
stroke:#000000; stroke-width:98.4252; stroke-opacity:1; 
stroke-linecap:round; stroke-linejoin:round;">
<path d="M62730 41000
L60697 41000
" />
<path d="M62730 37600
L62730 41000
" />
<path d="M52930 30000
L51930 30000
" />
<path d="M60697 41000
L60694 40996
" />
<path d="M59930 34800
L62730 37600
" />
<path d="M51930 28500
L58530 28500
" />
<path d="M58530 28500
L59930 29900
" />
<path d="M51930 30000
L51930 28500
" />
<path d="M59930 29900
L59930 34800
" />
<path d="M62530 40800
L60694 40800
" />
<path d="M62530 37700
L62530 40800
" />
<path d="M59530 34700
L62530 37700
" />
<path d="M59530 30300
L59530 34700
" />
<path d="M56930 29000
L58230 29000
" />
<path d="M58230 29000
L59530 30300
" />
</g>
<g style="fill:#000000; fill-opacity:0.0; 
stroke:#000000; stroke-width:157.48; stroke-opacity:1; 
stroke-linecap:round; stroke-linejoin:round;">
<path d="M62027 40000
L61530 40000
" />
<path d="M61530 40000
L61230 39700
" />
<path d="M61230 39700
L61230 39300
" />
<path d="M61230 39300
L58480 39300
" />
<path d="M58480 39300
L58455 39325
" />
</g>
<g style="fill:#000000; fill-opacity:0.0; 
stroke:#000000; stroke-width:98.4252; stroke-opacity:1; 
stroke-linecap:round; stroke-linejoin:round;">
<path d="M58455 39325
L58280 39500
" />
</g>
<g style="fill:#000000; fill-opacity:0.0; 
stroke:#000000; stroke-width:157.48; stroke-opacity:1; 
stroke-linecap:round; stroke-linejoin:round;">
<path d="M56918 39211
L56918 39738
" />
</g>
<g >
</g>
</g>
<g style="fill:#FFFFFF; fill-opacity:0.0; 
stroke:#FFFFFF; stroke-width:157.48; stroke-opacity:1; 
stroke-linecap:round; stroke-linejoin:round;">
</g>
<g style="fill:#FFFFFF; fill-opacity:1.0; 
stroke:#FFFFFF; stroke-width:0; stroke-opacity:1; 
stroke-linecap:round; stroke-linejoin:round;">
<circle cx="66930" cy="35000" r="78.7402" /> 
</g>
<g style="fill:#FFFFFF; fill-opacity:1.0; 
stroke:#FFFFFF; stroke-width:39.3701; stroke-opacity:1; 
stroke-linecap:round; stroke-linejoin:round;">
</g>
<g style="fill:#FFFFFF; fill-opacity:1.0; 
stroke:#FFFFFF; stroke-width:0; stroke-opacity:1; 
stroke-linecap:round; stroke-linejoin:round;">
<circle cx="66930" cy="34000" r="78.7402" /> 
</g>
<g style="fill:#FFFFFF; fill-opacity:1.0; 
stroke:#FFFFFF; stroke-width:39.3701; stroke-opacity:1; 
stroke-linecap:round; stroke-linejoin:round;">
</g>
<g style="fill:#FFFFFF; fill-opacity:1.0; 
stroke:#FFFFFF; stroke-width:0; stroke-opacity:1; 
stroke-linecap:round; stroke-linejoin:round;">
<circle cx="66930" cy="33000" r="78.7402" /> 
</g>
<g style="fill:#FFFFFF; fill-opacity:1.0; 
stroke:#FFFFFF; stroke-width:39.3701; stroke-opacity:1; 
stroke-linecap:round; stroke-linejoin:round;">
</g>
<g style="fill:#FFFFFF; fill-opacity:1.0; 
stroke:#FFFFFF; stroke-width:0; stroke-opacity:1; 
stroke-linecap:round; stroke-linejoin:round;">
<circle cx="66930" cy="32000" r="78.7402" /> 
</g>
<g style="fill:#FFFFFF; fill-opacity:1.0; 
stroke:#FFFFFF; stroke-width:39.3701; stroke-opacity:1; 
stroke-linecap:round; stroke-linejoin:round;">
</g>
<g style="fill:#FFFFFF; fill-opacity:1.0; 
stroke:#FFFFFF; stroke-width:0; stroke-opacity:1; 
stroke-linecap:round; stroke-linejoin:round;">
<circle cx="66930" cy="31000" r="78.7402" /> 
</g>
<g style="fill:#FFFFFF; fill-opacity:1.0; 
stroke:#FFFFFF; stroke-width:39.3701; stroke-opacity:1; 
stroke-linecap:round; stroke-linejoin:round;">
</g>
<g style="fill:#FFFFFF; fill-opacity:1.0; 
stroke:#FFFFFF; stroke-width:0; stroke-opacity:1; 
stroke-linecap:round; stroke-linejoin:round;">
<circle cx="66930" cy="30000" r="78.7402" /> 
</g>
<g style="fill:#FFFFFF; fill-opacity:1.0; 
stroke:#FFFFFF; stroke-width:39.3701; stroke-opacity:1; 
stroke-linecap:round; stroke-linejoin:round;">
</g>
<g style="fill:#FFFFFF; fill-opacity:1.0; 
stroke:#FFFFFF; stroke-width:0; stroke-opacity:1; 
stroke-linecap:round; stroke-linejoin:round;">
<circle cx="66930" cy="29000" r="78.7402" /> 
</g>
<g style="fill:#FFFFFF; fill-opacity:1.0; 
stroke:#FFFFFF; stroke-width:39.3701; stroke-opacity:1; 
stroke-linecap:round; stroke-linejoin:round;">
</g>
<g style="fill:#FFFFFF; fill-opacity:1.0; 
stroke:#FFFFFF; stroke-width:0; stroke-opacity:1; 
stroke-linecap:round; stroke-linejoin:round;">
<circle cx="66930" cy="28000" r="78.7402" /> 
</g>
<g style="fill:#FFFFFF; fill-opacity:1.0; 
stroke:#FFFFFF; stroke-width:39.3701; stroke-opacity:1; 
stroke-linecap:round; stroke-linejoin:round;">
</g>
<g style="fill:#FFFFFF; fill-opacity:1.0; 
stroke:#FFFFFF; stroke-width:0; stroke-opacity:1; 
stroke-linecap:round; stroke-linejoin:round;">
<circle cx="52930" cy="28000" r="78.7402" /> 
</g>
<g style="fill:#FFFFFF; fill-opacity:1.0; 
stroke:#FFFFFF; stroke-width:39.3701; stroke-opacity:1; 
stroke-linecap:round; stroke-linejoin:round;">
</g>
<g style="fill:#FFFFFF; fill-opacity:1.0; 
stroke:#FFFFFF; stroke-width:0; stroke-opacity:1; 
stroke-linecap:round; stroke-linejoin:round;">
<circle cx="52930" cy="29000" r="78.7402" /> 
</g>
<g style="fill:#FFFFFF; fill-opacity:1.0; 
stroke:#FFFFFF; stroke-width:39.3701; stroke-opacity:1; 
stroke-linecap:round; stroke-linejoin:round;">
</g>
<g style="fill:#FFFFFF; fill-opacity:1.0; 
stroke:#FFFFFF; stroke-width:0; stroke-opacity:1; 
stroke-linecap:round; stroke-linejoin:round;">
<circle cx="52930" cy="30000" r="78.7402" /> 
</g>
<g style="fill:#FFFFFF; fill-opacity:1.0; 
stroke:#FFFFFF; stroke-width:39.3701; stroke-opacity:1; 
stroke-linecap:round; stroke-linejoin:round;">
</g>
<g style="fill:#FFFFFF; fill-opacity:1.0; 
stroke:#FFFFFF; stroke-width:0; stroke-opacity:1; 
stroke-linecap:round; stroke-linejoin:round;">
<circle cx="52930" cy="31000" r="78.7402" /> 
</g>
<g style="fill:#FFFFFF; fill-opacity:1.0; 
stroke:#FFFFFF; stroke-width:39.3701; stroke-opacity:1; 
stroke-linecap:round; stroke-linejoin:round;">
</g>
<g style="fill:#FFFFFF; fill-opacity:1.0; 
stroke:#FFFFFF; stroke-width:0; stroke-opacity:1; 
stroke-linecap:round; stroke-linejoin:round;">
<circle cx="52930" cy="32000" r="78.7402" /> 
</g>
<g style="fill:#FFFFFF; fill-opacity:1.0; 
stroke:#FFFFFF; stroke-width:39.3701; stroke-opacity:1; 
stroke-linecap:round; stroke-linejoin:round;">
</g>
<g style="fill:#FFFFFF; fill-opacity:1.0; 
stroke:#FFFFFF; stroke-width:0; stroke-opacity:1; 
stroke-linecap:round; stroke-linejoin:round;">
<circle cx="52930" cy="33000" r="78.7402" /> 
</g>
<g style="fill:#FFFFFF; fill-opacity:1.0; 
stroke:#FFFFFF; stroke-width:39.3701; stroke-opacity:1; 
stroke-linecap:round; stroke-linejoin:round;">
</g>
<g style="fill:#FFFFFF; fill-opacity:1.0; 
stroke:#FFFFFF; stroke-width:0; stroke-opacity:1; 
stroke-linecap:round; stroke-linejoin:round;">
<circle cx="52930" cy="34000" r="78.7402" /> 
</g>
<g style="fill:#FFFFFF; fill-opacity:1.0; 
stroke:#FFFFFF; stroke-width:39.3701; stroke-opacity:1; 
stroke-linecap:round; stroke-linejoin:round;">
</g>
<g style="fill:#FFFFFF; fill-opacity:1.0; 
stroke:#FFFFFF; stroke-width:0; stroke-opacity:1; 
stroke-linecap:round; stroke-linejoin:round;">
<circle cx="52930" cy="35000" r="78.7402" /> 
</g>
<g style="fill:#FFFFFF; fill-opacity:1.0; 
stroke:#FFFFFF; stroke-width:39.3701; stroke-opacity:1; 
stroke-linecap:round; stroke-linejoin:round;">
</g>
<g style="fill:#000000; fill-opacity:1.0; 
stroke:#000000; stroke-width:39.3701; stroke-opacity:1; 
stroke-linecap:round; stroke-linejoin:round;">
</g> 
</svg>
